<?xml version="1.0" standalone="no"?>
<!DOCTYPE svg PUBLIC "-//W3C//DTD SVG 20010904//EN"
 "http://www.w3.org/TR/2001/REC-SVG-20010904/DTD/svg10.dtd">
<svg version="1.0" xmlns="http://www.w3.org/2000/svg"
 width="1200.000000pt" height="1200.000000pt" viewBox="0 0 1200.000000 1200.000000"
 preserveAspectRatio="xMidYMid meet">
<metadata>
Created by potrace 1.11, written by Peter Selinger 2001-2013
</metadata>
<g transform="translate(0.000000,1200.000000) scale(0.100000,-0.100000)"
fill="#000000" stroke="none">
<path d="M5925 10741 c-20 -9 -120 -107 -167 -166 -115 -142 -223 -300 -262
-385 -22 -48 -23 -56 -11 -96 16 -54 77 -151 168 -269 87 -112 113 -165 95
-196 -15 -25 -96 -66 -147 -75 -82 -15 -245 -147 -351 -284 -81 -104 -140
-253 -156 -388 -3 -32 -8 -60 -11 -64 -5 -9 -4 -209 2 -258 10 -92 28 -147 71
-228 28 -52 102 -160 124 -182 3 -3 21 -25 41 -50 20 -25 47 -57 60 -71 13
-14 41 -45 62 -69 l38 -43 -203 -134 -203 -135 -110 32 c-60 18 -117 34 -125
35 -8 2 -121 36 -250 75 -778 235 -1433 411 -1750 471 -63 12 -124 23 -135 26
-11 2 -29 5 -40 7 -11 2 -33 6 -50 9 -16 4 -50 9 -75 12 -25 3 -56 8 -70 10
-14 2 -45 7 -70 10 -25 3 -54 7 -65 9 -18 3 -82 9 -250 22 -63 5 -513 4 -580
-1 -105 -8 -158 -15 -284 -40 -37 -7 -180 -56 -210 -71 -14 -8 -30 -14 -34
-14 -4 0 -58 -25 -120 -56 -429 -215 -685 -506 -795 -904 -27 -95 -35 -140
-51 -265 -9 -70 -7 -419 3 -485 29 -191 32 -205 62 -325 86 -343 307 -829 615
-1353 27 -45 49 -85 49 -88 0 -3 9 -17 19 -32 23 -33 211 -351 211 -357 0 -3
13 -26 29 -52 63 -102 224 -417 299 -583 93 -206 193 -506 228 -684 15 -75 67
-365 69 -384 1 -12 6 -26 9 -30 9 -9 8876 -10 8881 -1 5 8 11 53 25 204 6 66
13 138 16 160 3 22 7 56 10 75 17 135 72 364 124 520 103 310 301 721 621
1292 253 449 411 775 524 1076 54 146 121 364 131 432 3 19 8 38 10 41 4 7 20
108 32 204 9 76 9 370 0 450 -4 33 -12 83 -18 110 -7 28 -14 60 -16 73 -14 70
-63 202 -115 307 -152 308 -400 556 -719 718 -157 79 -272 109 -470 122 -93 6
-756 6 -875 1 -75 -4 -228 -16 -275 -22 -100 -13 -253 -37 -315 -50 -38 -9
-81 -18 -95 -20 -45 -9 -380 -95 -443 -114 -34 -11 -136 -42 -227 -69 -91 -27
-253 -77 -360 -111 -406 -130 -611 -192 -795 -244 -344 -97 -345 -97 -481 -42
-158 64 -309 167 -302 205 2 8 28 34 58 58 132 104 197 192 263 358 51 128 71
223 72 340 0 118 -7 177 -33 265 -49 166 -161 324 -314 445 -28 22 -138 85
-258 146 -69 35 -127 65 -129 67 -11 6 35 79 139 217 62 83 128 172 146 199
l33 49 -17 41 c-51 130 -225 372 -372 519 -88 87 -98 93 -135 78z m4430 -2805
c334 -40 571 -143 753 -328 195 -198 281 -425 287 -753 2 -134 -13 -295 -38
-402 -72 -307 -264 -733 -612 -1358 -16 -27 -33 -59 -39 -70 -6 -11 -13 -22
-16 -25 -3 -3 -12 -17 -20 -32 -116 -209 -388 -632 -559 -868 -41 -58 -78
-107 -81 -110 -3 -3 -41 -50 -85 -105 -166 -210 -323 -341 -525 -441 -89 -44
-194 -83 -245 -91 -16 -3 -49 -8 -72 -12 -142 -27 -307 26 -400 127 -81 88
-133 248 -133 408 0 109 43 170 339 479 73 77 193 209 302 331 15 18 44 55 65
84 l37 52 -18 51 c-34 98 -159 373 -276 607 -116 231 -173 330 -195 337 -35
11 -721 -668 -930 -922 -84 -101 -83 -100 -69 -149 29 -96 144 -371 287 -686
l20 -44 -73 -141 c-161 -311 -252 -426 -383 -485 -60 -28 -142 -54 -201 -65
-35 -6 -151 -7 -180 -1 -63 13 -86 22 -147 53 -140 73 -265 222 -371 443 -89
185 -145 392 -166 606 -9 85 -7 457 2 499 3 11 8 47 11 80 9 85 43 271 72 405
48 214 103 403 244 830 106 322 179 580 195 684 12 87 85 144 326 251 57 26
132 60 167 76 35 16 66 29 69 29 3 0 19 6 36 14 115 53 167 74 167 69 0 -3 6
-1 13 5 7 6 39 20 72 33 33 12 65 25 70 29 6 4 21 11 35 15 14 4 39 13 55 20
17 6 57 22 90 34 33 13 69 27 80 31 77 33 434 153 650 219 111 34 399 106 460
115 22 4 47 8 55 11 25 7 171 32 245 41 22 3 51 7 65 10 14 2 63 7 110 10 47
4 86 7 88 9 5 4 319 -3 367 -9z m-8190 -90 c22 -3 65 -8 95 -11 57 -6 118 -16
255 -41 44 -8 93 -17 110 -20 16 -3 68 -14 115 -25 47 -11 92 -22 100 -24 8
-2 34 -8 58 -14 23 -6 61 -16 85 -22 277 -68 815 -253 1277 -439 453 -182 557
-236 595 -310 8 -16 17 -62 21 -102 7 -97 27 -181 88 -368 33 -104 43 -129
145 -405 131 -350 207 -596 237 -760 3 -16 9 -43 14 -60 10 -33 35 -202 46
-310 10 -91 11 -415 2 -530 -21 -264 -76 -503 -147 -635 -75 -140 -121 -200
-233 -308 -174 -166 -389 -218 -590 -142 -72 27 -138 70 -205 133 -109 102
-176 208 -272 428 l-42 95 94 235 c102 251 137 349 161 444 28 115 28 131 -1
167 -36 45 -331 337 -482 478 -68 63 -140 131 -161 150 -20 19 -72 66 -116
105 -43 38 -81 72 -84 76 -19 22 -155 129 -165 129 -18 0 -136 -244 -259 -535
-38 -88 -76 -178 -86 -200 -43 -99 -83 -231 -77 -255 14 -52 168 -239 376
-455 302 -314 363 -405 363 -545 0 -92 -8 -125 -47 -207 -40 -81 -130 -181
-214 -237 -158 -106 -349 -89 -632 55 -145 74 -329 236 -494 434 -27 33 -52
62 -55 65 -80 76 -480 641 -627 885 -205 340 -239 398 -301 515 -25 47 -48 90
-53 95 -16 22 -207 406 -248 500 -24 55 -50 115 -58 132 -47 109 -122 333
-139 418 -2 11 -7 31 -10 45 -26 121 -35 227 -31 350 3 74 8 149 11 165 75
335 311 617 633 754 75 32 213 75 278 86 77 13 91 15 155 21 36 3 66 7 68 9 5
4 403 -4 447 -9z"/>
<path d="M1594 2131 c-2 -2 -4 -204 -4 -448 l0 -444 1813 5 c3659 11 5966 18
6509 19 306 1 559 4 562 7 3 3 7 78 10 165 8 207 16 463 21 593 2 71 -1 102
-9 103 -31 4 -8898 4 -8902 0z"/>
</g>
</svg>
